<svg xmlns="http://www.w3.org/2000/svg" viewBox="0 0 500 500"><g id="freepik--background-complete--inject-939"><rect y="382.4" width="500" height="0.25" style="fill:#ebebeb"></rect><rect x="416.78" y="398.49" width="33.12" height="0.25" style="fill:#ebebeb"></rect><rect x="239.64" y="395.44" width="30.22" height="0.25" style="fill:#ebebeb"></rect><rect x="345.89" y="389.21" width="69.89" height="0.25" style="fill:#ebebeb"></rect><rect x="52.46" y="390.89" width="167.14" height="0.25" style="fill:#ebebeb"></rect><rect x="228.5" y="390.89" width="6.33" height="0.25" style="fill:#ebebeb"></rect><path d="M237,337.8H43.91a5.71,5.71,0,0,1-5.7-5.71V60.66A5.71,5.71,0,0,1,43.91,55H237a5.71,5.71,0,0,1,5.71,5.71V332.09A5.71,5.71,0,0,1,237,337.8ZM43.91,55.2a5.46,5.46,0,0,0-5.45,5.46V332.09a5.46,5.46,0,0,0,5.45,5.46H237a5.47,5.47,0,0,0,5.46-5.46V60.66A5.47,5.47,0,0,0,237,55.2Z" style="fill:#ebebeb"></path><path d="M453.31,337.8H260.21a5.72,5.72,0,0,1-5.71-5.71V60.66A5.72,5.72,0,0,1,260.21,55h193.1A5.71,5.71,0,0,1,459,60.66V332.09A5.71,5.71,0,0,1,453.31,337.8ZM260.21,55.2a5.47,5.47,0,0,0-5.46,5.46V332.09a5.47,5.47,0,0,0,5.46,5.46h193.1a5.47,5.47,0,0,0,5.46-5.46V60.66a5.47,5.47,0,0,0-5.46-5.46Z" style="fill:#ebebeb"></path><path d="M345.83,259.08c35.79,36.38,23.72,69.05-.46,118.54-.79,1.59-1.54,3.19-2.33,4.78h59.6c18.58-41.45,17.59-103.28-36.07-157.84-29.69-30.19-31.85-44.27-32-46.23,1.41-2.3,7.87-5.85,13.64-6.78,9.19-1.52,15.78-12.41,14.62-24.41s-9.48-20.56-18.73-19.23c-3.58.52-35.21,6.12-42.12,38.38C294.39,201.78,323.39,236.23,345.83,259.08Z" style="fill:#ebebeb"></path><path d="M238,211.32l105.23,12.09c8.91,1,17.56-3.87,22.36-12.65,5.24-9.57,9.54-21.73,3.07-28.89a30.09,30.09,0,0,1-7.56-22c1.91-30.42-10.54-68.39-50-71.65-22.34-1.85-30.2,13.79-32.28,30.8-1.93,15.88-14.93,26.55-28.45,23.27-11.9-2.9-22.48.49-21.63,22.4.42,10.69-4.54,20.72-12.73,25.62C204.22,197.35,197.68,209,238,211.32Z" style="fill:#e0e0e0"></path><path d="M158.38,380.48c.89.68,1.79,1.31,2.71,1.92H355.88c17.29-7.71,26-15,14.29-19.3-10.43-3.85-20.26-12.77-25.49-23.38C338,326.26,318.06,324.49,300.1,326c-15.24,1.26-33.38-11.13-40.84-28.32-7.94-18.28-23.41-36.92-53.43-36C158,263.22,142.76,296,152.1,332.14c2.89,11.16.33,21.34-7.12,26.31C138.11,363.05,148.79,373.16,158.38,380.48Z" style="fill:#fafafa"></path><path d="M26.41,380.92a16.28,16.28,0,0,0,1.25,1.48H177.27c16.64-5.92,26.49-11.52,19.38-14.83-6.34-2.95-10-9.8-9.41-17.95.76-10.34-13.82-11.7-28.26-10.56-12.25,1-20.8-8.54-19-21.74,1.86-14.05-1.91-28.36-25.38-27.63A77,77,0,0,0,42.62,343.8c-2.63,8.57-9,16.39-16.91,20.2C18.43,367.54,22.23,375.3,26.41,380.92Z" style="fill:#e6e6e6"></path><path d="M289.93,267.26,456,226.65c8.65-1,16.46-6.87,21.07-16.92,3.49-7.63,4.5-16.07-4.48-20.39-10.34-5-17.88-14.73-21.46-26.2-8.51-27.27-38-55-94.42-49.37-29.25,2.91-39.25,15.23-40.7,29-2.19,20.72-18.28,36-37.81,36.22-16.35.17-29.66,4.69-27.63,19.59a39.32,39.32,0,0,1-15.44,36.91C223.3,244.23,234.53,273.68,289.93,267.26Z" style="fill:#f5f5f5"></path><circle cx="197.09" cy="91.14" r="25.35" transform="translate(-19.88 82.36) rotate(-22.5)" style="fill:#f0f0f0"></circle><path d="M188.24,84c11.37-7.28,9-14.22-14.81-12.84s-27.67,12.22-27.67,12.22-36-1.32-33,6.36c-20.53,1.81-26.13,3.59-12,4.52l103.18-7.15S207.62,82.35,188.24,84Z" style="fill:#fafafa"></path><path d="M67.23,157.88l56.23-3.9s21.74-7.58,8.06-7.41c10.42-5.91,17.48-15.21-4.16-13.91s-28.67,13.93-28.67,13.93-21.15-6.66-29,6.81C64.58,153.76,39.82,159.78,67.23,157.88Z" style="fill:#f5f5f5"></path><path d="M366.43,88.8,407.52,86s15.89-5.54,5.89-5.42c7.62-4.32,12.78-11.12-3-10.17s-20.95,10.18-20.95,10.18-15.45-4.87-21.19,5C364.5,85.79,346.4,90.19,366.43,88.8Z" style="fill:#f5f5f5"></path></g></svg>
